<svg aria-hidden="true" style="position: absolute; width: 0; height: 0; overflow: hidden;" version="1.1" xmlns="http://www.w3.org/2000/svg" xmlns:xlink="http://www.w3.org/1999/xlink">
<defs>
<symbol id="icon-repeat" viewBox="0 0 32 32">
<path stroke-linejoin="round" stroke-linecap="round" stroke-miterlimit="4" stroke-width="1.8667" d="M22.667 1.333l5.333 5.333-5.333 5.333"></path>
<path stroke-linejoin="round" stroke-linecap="round" stroke-miterlimit="4" stroke-width="1.8667" d="M4 14.667v-2.667c0-1.415 0.562-2.771 1.562-3.771s2.357-1.562 3.771-1.562h18.667"></path>
<path stroke-linejoin="round" stroke-linecap="round" stroke-miterlimit="4" stroke-width="1.8667" d="M9.333 30.667l-5.333-5.333 5.333-5.333"></path>
<path stroke-linejoin="round" stroke-linecap="round" stroke-miterlimit="4" stroke-width="1.8667" d="M28 17.333v2.667c0 1.415-0.562 2.771-1.562 3.771s-2.357 1.562-3.771 1.562h-18.667"></path>
</symbol>
<symbol id="icon-Vector" viewBox="0 0 32 32">
<path stroke-linejoin="round" stroke-linecap="round" stroke-miterlimit="4" stroke-width="3.7333" d="M3.556 16h24.889"></path>
</symbol>
<symbol id="icon-x" viewBox="0 0 32 32">
<path stroke-linejoin="round" stroke-linecap="round" stroke-miterlimit="4" stroke-width="1.8667" d="M24 8l-16 16"></path>
<path stroke-linejoin="round" stroke-linecap="round" stroke-miterlimit="4" stroke-width="1.8667" d="M8 8l16 16"></path>
</symbol>
<symbol id="icon-plus" viewBox="0 0 32 32">
<path stroke-linejoin="round" stroke-linecap="round" stroke-miterlimit="4" stroke-width="3.2" d="M16 6.667v18.667"></path>
<path stroke-linejoin="round" stroke-linecap="round" stroke-miterlimit="4" stroke-width="3.2" d="M6.667 16h18.667"></path>
</symbol>
<symbol id="icon-Polygon" viewBox="0 0 32 32">
<path d="M16 24l13.856-18h-27.713l13.856 18z"></path>
</symbol>
<symbol id="icon-heart" viewBox="0 0 32 32">
<path stroke-linejoin="miter" stroke-linecap="butt" stroke-miterlimit="4" stroke-width="1.7455" d="M16.001 27.636c-0.372 0-0.732-0.135-1.012-0.38-1.055-0.923-2.078-1.792-2.978-2.558-2.329-1.855-4.505-3.895-6.505-6.1-1.613-1.738-2.536-4.003-2.596-6.373-0.036-2.056 0.706-4.050 2.076-5.585 0.665-0.724 1.475-1.301 2.377-1.693s1.876-0.591 2.86-0.584c1.493-0.007 2.944 0.493 4.115 1.418 0.634 0.496 1.194 1.081 1.662 1.736 0.469-0.655 1.029-1.239 1.664-1.735 1.17-0.925 2.619-1.425 4.111-1.42 0.984-0.007 1.958 0.192 2.86 0.584s1.712 0.969 2.377 1.693c1.371 1.534 2.112 3.528 2.076 5.585-0.059 2.369-0.981 4.634-2.592 6.373-1.999 2.203-4.173 4.242-6.5 6.096-0.901 0.767-1.922 1.637-2.983 2.564-0.281 0.245-0.641 0.379-1.013 0.378v0z"></path>
</symbol>
<symbol id="icon-profile" viewBox="0 0 32 32">
<path stroke-linejoin="miter" stroke-linecap="butt" stroke-miterlimit="4" stroke-width="1.7455" d="M28.218 33.455c0 6.748-5.47 12.218-12.218 12.218s-12.218-5.47-12.218-12.218c0-6.748 5.47-12.218 12.218-12.218s12.218 5.47 12.218 12.218z"></path>
<path stroke-linejoin="miter" stroke-linecap="butt" stroke-miterlimit="4" stroke-width="1.7455" d="M20.945 10.182c0 2.731-2.214 4.945-4.945 4.945s-4.945-2.214-4.945-4.945c0-2.731 2.214-4.945 4.945-4.945s4.945 2.214 4.945 4.945z"></path>
</symbol>
<symbol id="icon-search" viewBox="0 0 32 32">
<path stroke-linejoin="round" stroke-linecap="round" stroke-miterlimit="4" stroke-width="2.24" d="M14.667 25.333c5.891 0 10.667-4.776 10.667-10.667s-4.776-10.667-10.667-10.667c-5.891 0-10.667 4.776-10.667 10.667s4.776 10.667 10.667 10.667z"></path>
<path stroke-linejoin="round" stroke-linecap="round" stroke-miterlimit="4" stroke-width="2.24" d="M28 28l-5.8-5.8"></path>
</symbol>
</defs>
</svg>
