<!-- Generated by IcoMoon.io -->
<svg version="1.1" xmlns="http://www.w3.org/2000/svg" width="32" height="32" viewBox="0 0 32 32">
<title>heart</title>
<path fill="none" stroke-linejoin="miter" stroke-linecap="butt" stroke-miterlimit="4" stroke-width="1.7455" stroke="#000" d="M16.001 27.636c-0.372 0-0.732-0.135-1.012-0.38-1.055-0.923-2.078-1.792-2.978-2.558-2.329-1.855-4.505-3.895-6.505-6.1-1.613-1.738-2.536-4.003-2.596-6.373-0.036-2.056 0.706-4.050 2.076-5.585 0.665-0.724 1.475-1.301 2.377-1.693s1.876-0.591 2.86-0.584c1.493-0.007 2.944 0.493 4.115 1.418 0.634 0.496 1.194 1.081 1.662 1.736 0.469-0.655 1.029-1.239 1.664-1.735 1.17-0.925 2.619-1.425 4.111-1.42 0.984-0.007 1.958 0.192 2.86 0.584s1.712 0.969 2.377 1.693c1.371 1.534 2.112 3.528 2.076 5.585-0.059 2.369-0.981 4.634-2.592 6.373-1.999 2.203-4.173 4.242-6.5 6.096-0.901 0.767-1.922 1.637-2.983 2.564-0.281 0.245-0.641 0.379-1.013 0.378v0z"></path>
</svg>
